<svg width="652" height="133" viewBox="0 0 652 133" fill="none" xmlns="http://www.w3.org/2000/svg">
<path d="M1 2.54365C2.06133 2.57484 3.54406 2.63721 5.44821 2.73076C10.349 2.98024 13.6267 3.10498 15.2811 3.10498C17.4662 3.10498 21.493 2.96465 27.3615 2.68398C28.8598 2.62161 30.0148 2.57484 30.8264 2.54365V6.61328C27.8921 6.67565 25.9724 6.9875 25.0671 7.54882C24.1931 8.11015 23.7561 9.18603 23.7561 10.7765C23.7561 11.369 23.8653 12.1174 24.0839 13.0218C24.3024 13.9261 24.7238 15.3139 25.3481 17.1849L38.9268 55.2617L39.2078 54.5132C49.9771 27.6943 55.3618 13.0218 55.3618 10.4958C55.3618 9.0301 54.9091 8.0166 54.0039 7.45527C53.0986 6.89394 51.2569 6.58209 48.4787 6.51972V2.54365C48.9782 2.57484 49.7118 2.60602 50.6794 2.63721C55.4554 2.94905 58.8111 3.10498 60.7464 3.10498C62.3072 3.10498 65.3351 2.96465 69.8301 2.68398C71.2036 2.62161 72.2649 2.57484 73.0141 2.54365V6.75361C71.7967 6.75361 70.7198 6.84716 69.7833 7.03427C68.8781 7.22138 68.1133 7.50205 67.489 7.87626C66.3028 8.6247 64.2582 12.476 61.3551 19.4303C60.1377 22.3305 59.1701 24.6069 58.4521 26.2597C51.9905 41.3532 47.3862 52.2679 44.6392 59.0039C41.8923 65.7086 40.5188 69.3884 40.5188 70.0433H30.92C30.92 69.2637 29.1252 63.8375 25.5354 53.7648C21.9768 43.6921 17.7627 32.5123 12.8931 20.2255C12.6434 19.5706 12.2688 18.635 11.7693 17.4188C8.89752 10.1216 5.69793 6.47294 2.17058 6.47294C2.04572 6.47294 1.84282 6.48854 1.56188 6.51972C1.31215 6.55091 1.12486 6.5665 1 6.5665V2.54365Z" fill="white"/>
<path d="M77.2282 2.54365C80.2873 2.73076 83.0811 2.87109 85.6096 2.96465C88.1692 3.0582 90.448 3.10498 92.4458 3.10498C94.4123 3.10498 96.613 3.0582 99.0478 2.96465C101.514 2.87109 104.245 2.73076 107.242 2.54365V6.75361H106.259C104.105 6.75361 102.56 6.9719 101.623 7.40849C100.718 7.84508 100.062 8.64029 99.6565 9.79413C99.3132 10.7609 99.0634 12.6631 98.9074 15.501C98.7513 18.3388 98.6732 23.4375 98.6732 30.7971V50.0226C98.6732 54.4197 98.7513 57.4758 98.9074 59.191C99.0947 60.875 99.4068 62.1068 99.8438 62.8864C100.281 63.666 101.014 64.2273 102.045 64.5704C103.075 64.9134 104.604 65.0849 106.633 65.0849H107.804V69.2949C104.37 69.1078 101.358 68.9674 98.7669 68.8739C96.176 68.7803 93.9753 68.7335 92.1648 68.7335C90.5104 68.7335 88.3721 68.7803 85.75 68.8739C83.1279 68.9674 80.0844 69.1078 76.6195 69.2949V65.0849H77.7901C79.8815 65.0849 81.4423 64.9134 82.4724 64.5704C83.5025 64.2273 84.2049 63.666 84.5795 62.8864C85.0477 62.0132 85.3755 60.5943 85.5627 58.6296C85.75 56.6338 85.8437 53.032 85.8437 47.8241V20.4594C85.8437 16.5924 85.75 13.8949 85.5627 12.3669C85.4067 10.8076 85.1101 9.6538 84.6731 8.90536C84.2673 8.15693 83.5493 7.61119 82.5192 7.26816C81.5203 6.92513 80.0688 6.75361 78.1647 6.75361H77.2282V2.54365Z" fill="white"/>
<path d="M114.78 2.54365C117.434 2.69958 119.931 2.82431 122.272 2.91787C124.645 2.98024 126.752 3.01142 128.593 3.01142C130.497 3.01142 132.62 2.98024 134.961 2.91787C137.334 2.82431 140.065 2.69958 143.155 2.54365V6.75361C142.968 6.75361 142.703 6.73802 142.359 6.70683C142.016 6.67565 141.782 6.66005 141.657 6.66005C139.035 6.66005 137.256 7.43968 136.319 8.99892C135.383 10.5582 134.914 14.0821 134.914 19.5706C134.914 20.3814 134.93 21.8471 134.961 23.9677C134.992 26.0882 135.008 27.819 135.008 29.1599L135.102 61.9976L135.383 62.0444C139.409 62.2939 142.453 62.4186 144.513 62.4186C152.348 62.4186 157.483 61.6078 159.918 59.9862C162.353 58.3646 164.351 55.2773 165.911 50.7243L170.219 52.034C169.251 54.8719 168.377 57.7253 167.597 60.5943C166.848 63.4633 166.192 66.3635 165.63 69.2949C160.105 69.1078 154.97 68.9674 150.226 68.8739C145.481 68.7803 141.142 68.7335 137.209 68.7335C133.307 68.7335 129.374 68.7803 125.409 68.8739C121.476 68.9674 117.559 69.1078 113.657 69.2949V65.1785H114.968C116.653 65.1785 117.949 65.007 118.854 64.6639C119.759 64.3209 120.415 63.7596 120.821 62.9799C121.695 61.2648 122.163 54.8563 122.225 43.7545C122.257 42.32 122.272 41.2285 122.272 40.48L122.366 30.2826C122.366 28.9105 122.381 27.1173 122.413 24.9032C122.444 22.6579 122.459 21.0986 122.459 20.2255C122.459 14.6122 121.991 10.948 121.055 9.23281C120.149 7.51764 118.417 6.66005 115.857 6.66005H114.78V2.54365Z" fill="white"/>
<path d="M174.527 2.54365C177.18 2.69958 179.677 2.82431 182.019 2.91787C184.391 2.98024 186.498 3.01142 188.34 3.01142C190.244 3.01142 192.367 2.98024 194.708 2.91787C197.08 2.82431 199.811 2.69958 202.902 2.54365V6.75361C202.714 6.75361 202.449 6.73802 202.106 6.70683C201.762 6.67565 201.528 6.66005 201.403 6.66005C198.781 6.66005 197.002 7.43968 196.066 8.99892C195.129 10.5582 194.661 14.0821 194.661 19.5706C194.661 20.3814 194.676 21.8471 194.708 23.9677C194.739 26.0882 194.755 27.819 194.755 29.1599L194.848 61.9976L195.129 62.0444C199.156 62.2939 202.199 62.4186 204.26 62.4186C212.095 62.4186 217.23 61.6078 219.664 59.9862C222.099 58.3646 224.097 55.2773 225.658 50.7243L229.966 52.034C228.998 54.8719 228.124 57.7253 227.343 60.5943C226.594 63.4633 225.939 66.3635 225.377 69.2949C219.852 69.1078 214.717 68.9674 209.972 68.8739C205.227 68.7803 200.888 68.7335 196.955 68.7335C193.053 68.7335 189.12 68.7803 185.156 68.8739C181.223 68.9674 177.305 69.1078 173.403 69.2949V65.1785H174.714C176.4 65.1785 177.695 65.007 178.6 64.6639C179.506 64.3209 180.161 63.7596 180.567 62.9799C181.441 61.2648 181.909 54.8563 181.972 43.7545C182.003 42.32 182.019 41.2285 182.019 40.48L182.112 30.2826C182.112 28.9105 182.128 27.1173 182.159 24.9032C182.19 22.6579 182.206 21.0986 182.206 20.2255C182.206 14.6122 181.738 10.948 180.801 9.23281C179.896 7.51764 178.163 6.66005 175.604 6.66005H174.527V2.54365Z" fill="white"/>
<path d="M264.849 13.4428L254.641 39.3106C255.828 39.3418 257.076 39.373 258.387 39.4042C259.73 39.4042 261.509 39.4042 263.725 39.4042C266.285 39.4042 268.283 39.4042 269.718 39.4042C271.154 39.373 272.497 39.3418 273.745 39.3106L264.849 13.4428ZM262.274 2.21621H273.698C278.193 15.3762 282.47 27.476 286.528 38.5154C290.617 49.5237 293.473 56.8521 295.097 60.5007C295.783 62.1535 296.642 63.3386 297.672 64.0558C298.733 64.7419 300.138 65.0849 301.886 65.0849H302.916V69.2949C298.952 69.1078 295.908 68.983 293.786 68.9206C291.663 68.8583 289.884 68.8271 288.448 68.8271C287.074 68.8271 285.295 68.8583 283.11 68.9206C280.925 68.983 277.756 69.1078 273.605 69.2949V65.0849H274.448C276.914 65.0849 278.584 64.8042 279.458 64.2429C280.332 63.6816 280.769 62.6837 280.769 61.2492C280.769 60.8126 280.706 60.298 280.581 59.7055C280.488 59.113 280.269 58.2866 279.926 57.2263L276.086 45.9062C274.307 45.875 271.966 45.8438 269.063 45.8127C266.16 45.7503 264.349 45.7191 263.631 45.7191C262.289 45.7191 259.589 45.7659 255.531 45.8594C254.064 45.8906 252.925 45.9062 252.113 45.9062L251.926 46.374C248.867 53.8272 247.337 58.5361 247.337 60.5007C247.337 62.1223 247.79 63.2918 248.695 64.009C249.631 64.7263 251.161 65.0849 253.284 65.0849H254.126V69.2949C250.568 69.1078 247.805 68.983 245.839 68.9206C243.872 68.8583 242.249 68.8271 240.969 68.8271C239.908 68.8271 238.503 68.8583 236.755 68.9206C235.038 68.983 232.525 69.1078 229.216 69.2949V65.0849C231.464 65.0849 233.259 64.6951 234.601 63.9155C235.943 63.1359 237.083 61.8261 238.019 59.9862C239.361 57.5538 242.389 50.7555 247.103 39.5913C251.816 28.4271 256.873 15.9687 262.274 2.21621Z" fill="white"/>
<path d="M397.124 4.83574C397.124 5.14759 397.109 5.64655 397.078 6.33261C397.046 6.9875 397.031 7.47086 397.031 7.78271C397.031 9.8721 397.124 12.0862 397.312 14.4251C397.499 16.764 397.796 19.3367 398.201 22.1433L393.566 22.9386C393.066 18.292 391.084 14.6902 387.619 12.133C384.154 9.54465 379.581 8.25048 373.9 8.25048C366.658 8.25048 361.039 10.5114 357.044 15.0332C353.079 19.5238 351.097 25.8855 351.097 34.1183C351.097 43.006 353.345 50.085 357.84 55.3552C362.366 60.6255 368.406 63.2606 375.96 63.2606C380.705 63.2606 384.748 62.1847 388.088 60.033C391.459 57.8812 394.19 54.6068 396.282 50.2097L400.402 52.1276C399.154 54.5912 398.061 57.008 397.124 59.3781C396.188 61.7169 395.392 64.0402 394.737 66.3479C390.959 67.876 387.26 69.0298 383.639 69.8094C380.05 70.6202 376.585 71.0256 373.245 71.0256C362.382 71.0256 353.579 67.8136 346.836 61.3895C340.094 54.9654 336.723 46.5767 336.723 36.2233C336.723 25.9947 340.25 17.5748 347.305 10.9636C354.39 4.32119 363.365 1 374.228 1C378.13 1 381.954 1.31185 385.7 1.93555C389.477 2.55924 393.285 3.52597 397.124 4.83574Z" fill="white"/>
<path d="M406.302 2.54365C409.361 2.73076 412.155 2.87109 414.683 2.96465C417.243 3.0582 419.522 3.10498 421.519 3.10498C423.486 3.10498 425.687 3.0582 428.121 2.96465C430.587 2.87109 433.319 2.73076 436.316 2.54365V6.75361H435.332C433.178 6.75361 431.633 6.9719 430.697 7.40849C429.791 7.84508 429.136 8.64029 428.73 9.79413C428.387 10.7609 428.137 12.6631 427.981 15.501C427.825 18.3388 427.747 23.4375 427.747 30.7971V50.0226C427.747 54.4197 427.825 57.4758 427.981 59.191C428.168 60.875 428.48 62.1068 428.917 62.8864C429.354 63.666 430.088 64.2273 431.118 64.5704C432.148 64.9134 433.678 65.0849 435.707 65.0849H436.877V69.2949C433.444 69.1078 430.431 68.9674 427.841 68.8739C425.25 68.7803 423.049 68.7335 421.238 68.7335C419.584 68.7335 417.446 68.7803 414.824 68.8739C412.202 68.9674 409.158 69.1078 405.693 69.2949V65.0849H406.864C408.955 65.0849 410.516 64.9134 411.546 64.5704C412.576 64.2273 413.279 63.666 413.653 62.8864C414.121 62.0132 414.449 60.5943 414.636 58.6296C414.824 56.6338 414.917 53.032 414.917 47.8241V20.4594C414.917 16.5924 414.824 13.8949 414.636 12.3669C414.48 10.8076 414.184 9.6538 413.747 8.90536C413.341 8.15693 412.623 7.61119 411.593 7.26816C410.594 6.92513 409.142 6.75361 407.238 6.75361H406.302V2.54365Z" fill="white"/>
<path d="M456.403 65.0849H458.135C460.227 65.0849 461.756 64.8666 462.724 64.43C463.691 63.9623 464.409 63.1514 464.878 61.9976C465.19 61.1244 465.408 59.0039 465.533 55.6359C465.658 52.2679 465.721 46.031 465.721 36.925V10.1684H457.667C452.766 10.1684 449.41 10.8544 447.6 12.2266C445.789 13.5987 444.541 16.2338 443.854 20.1319L439.453 19.1964C440.171 16.1091 440.717 13.1621 441.091 10.3555C441.497 7.51764 441.747 4.72659 441.841 1.98232C443.027 2.38773 444.697 2.68398 446.851 2.87109C449.005 3.02702 452.641 3.10498 457.761 3.10498H485.854C491.598 3.10498 495.594 3.02702 497.841 2.87109C500.12 2.68398 501.79 2.37213 502.851 1.93555V3.38564C502.851 5.81806 502.945 8.34404 503.132 10.9636C503.351 13.5519 503.663 16.2962 504.069 19.1964L499.855 19.8513C499.324 16.0467 498.247 13.4895 496.624 12.1798C495.001 10.8388 491.801 10.1684 487.025 10.1684H478.784C478.691 15.1579 478.628 20.0695 478.597 24.9032C478.566 29.7369 478.55 35.3657 478.55 41.7898V50.5372C478.55 54.6536 478.644 57.5382 478.831 59.191C479.018 60.8438 479.315 62.0756 479.721 62.8864C480.189 63.666 480.922 64.2273 481.921 64.5704C482.92 64.9134 484.325 65.0849 486.135 65.0849H487.774V69.2949C486.994 69.2637 485.839 69.2169 484.309 69.1545C478.191 68.8739 474.008 68.7335 471.761 68.7335C470.138 68.7335 468.046 68.7803 465.486 68.8739C462.958 68.9674 459.93 69.1078 456.403 69.2949V65.0849Z" fill="white"/>
<path d="M530.009 35.662C531.663 35.7555 533.068 35.8335 534.223 35.8959C535.378 35.9271 536.346 35.9426 537.126 35.9426C538.094 35.9426 539.124 35.9271 540.216 35.8959C541.309 35.8335 542.448 35.7555 543.634 35.662C546.35 33.9156 548.332 31.9354 549.581 29.7213C550.861 27.476 551.501 24.8564 551.501 21.8627C551.501 17.9646 550.174 14.8149 547.521 12.4137C544.899 9.98124 541.402 8.76503 537.032 8.76503C535.69 8.76503 534.457 8.81181 533.333 8.90536C532.241 8.99892 531.164 9.13925 530.102 9.32636C530.071 12.7255 530.04 16.2806 530.009 19.9916C530.009 23.7026 530.009 28.9261 530.009 35.662ZM509.032 65.1785C509.282 65.2096 509.516 65.2408 509.734 65.272C509.984 65.272 510.359 65.272 510.858 65.272C513.418 65.272 515.135 64.43 516.009 62.746C516.914 61.0621 517.367 56.6026 517.367 49.3677V40.9478L517.554 30.4697C517.585 28.2556 517.601 26.057 517.601 23.8741C517.632 21.6912 517.647 19.0716 517.647 16.0155C517.647 12.0862 517.164 9.54465 516.196 8.39081C515.259 7.23697 513.48 6.66005 510.858 6.66005H509.875V2.54365C513.215 2.69958 515.977 2.82431 518.163 2.91787C520.348 2.98024 522.252 3.01142 523.875 3.01142C526.185 3.01142 529.057 2.93346 532.49 2.77754C535.924 2.62161 538.234 2.54365 539.42 2.54365C547.162 2.54365 553.264 4.14967 557.728 7.36171C562.192 10.5738 564.424 14.9396 564.424 20.4594C564.424 24.1392 563.3 27.3824 561.053 30.189C558.836 32.9957 555.496 35.3969 551.032 37.3927L560.21 50.3033C564.58 57.1016 567.764 61.3739 569.762 63.1203C571.791 64.8666 573.945 65.7398 576.223 65.7398C576.348 65.7398 576.52 65.7242 576.738 65.693C576.988 65.6618 577.175 65.6462 577.3 65.6462V69.5755C575.396 69.7315 573.742 69.8406 572.337 69.903C570.932 69.9965 569.699 70.0433 568.638 70.0433C564.83 70.0433 561.849 69.6223 559.695 68.7803C557.541 67.9383 555.605 66.4882 553.889 64.43C553.077 63.4633 551.079 60.3604 547.895 55.1213C544.711 49.8511 541.917 45.3449 539.514 41.6027C537.579 41.6651 535.862 41.7118 534.363 41.743C532.865 41.7742 531.414 41.7898 530.009 41.7898V54.2326C530.009 59.0039 530.477 62.0132 531.414 63.2606C532.35 64.4768 534.192 65.0849 536.939 65.0849H538.25V69.2949C535.69 69.1389 533.13 69.0298 530.571 68.9674C528.011 68.8739 525.389 68.8271 522.704 68.8271C521.83 68.8271 520.535 68.8583 518.818 68.9206C517.132 68.9518 513.87 69.0766 509.032 69.2949V65.1785Z" fill="white"/>
<path d="M612.933 13.4428L602.725 39.3106C603.911 39.3418 605.16 39.373 606.471 39.4042C607.813 39.4042 609.593 39.4042 611.809 39.4042C614.369 39.4042 616.366 39.4042 617.802 39.4042C619.238 39.373 620.581 39.3418 621.829 39.3106L612.933 13.4428ZM610.357 2.21621H621.782C626.277 15.3762 630.554 27.476 634.612 38.5154C638.701 49.5237 641.557 56.8521 643.181 60.5007C643.867 62.1535 644.726 63.3386 645.756 64.0558C646.817 64.7419 648.222 65.0849 649.97 65.0849H651V69.2949C647.036 69.1078 643.992 68.983 641.87 68.9206C639.747 68.8583 637.968 68.8271 636.532 68.8271C635.158 68.8271 633.379 68.8583 631.194 68.9206C629.009 68.983 625.84 69.1078 621.689 69.2949V65.0849H622.531C624.997 65.0849 626.668 64.8042 627.542 64.2429C628.416 63.6816 628.853 62.6837 628.853 61.2492C628.853 60.8126 628.79 60.298 628.665 59.7055C628.572 59.113 628.353 58.2866 628.01 57.2263L624.17 45.9062C622.391 45.875 620.05 45.8438 617.147 45.8127C614.244 45.7503 612.433 45.7191 611.715 45.7191C610.373 45.7191 607.673 45.7659 603.615 45.8594C602.148 45.8906 601.008 45.9062 600.197 45.9062L600.01 46.374C596.95 53.8272 595.421 58.5361 595.421 60.5007C595.421 62.1223 595.873 63.2918 596.779 64.009C597.715 64.7263 599.245 65.0849 601.367 65.0849H602.21V69.2949C598.652 69.1078 595.889 68.983 593.922 68.9206C591.956 68.8583 590.333 68.8271 589.053 68.8271C587.992 68.8271 586.587 68.8583 584.839 68.9206C583.122 68.983 580.609 69.1078 577.3 69.2949V65.0849C579.548 65.0849 581.343 64.6951 582.685 63.9155C584.027 63.1359 585.167 61.8261 586.103 59.9862C587.445 57.5538 590.473 50.7555 595.187 39.5913C599.9 28.4271 604.957 15.9687 610.357 2.21621Z" fill="white"/>
<path d="M1 2.54365C2.06133 2.57484 3.54406 2.63721 5.44821 2.73076C10.349 2.98024 13.6267 3.10498 15.2811 3.10498C17.4662 3.10498 21.493 2.96465 27.3615 2.68398C28.8598 2.62161 30.0148 2.57484 30.8264 2.54365V6.61328C27.8921 6.67565 25.9724 6.9875 25.0671 7.54882C24.1931 8.11015 23.7561 9.18603 23.7561 10.7765C23.7561 11.369 23.8653 12.1174 24.0839 13.0218C24.3024 13.9261 24.7238 15.3139 25.3481 17.1849L38.9268 55.2617L39.2078 54.5132C49.9771 27.6943 55.3618 13.0218 55.3618 10.4958C55.3618 9.0301 54.9091 8.0166 54.0039 7.45527C53.0986 6.89394 51.2569 6.58209 48.4787 6.51972V2.54365C48.9782 2.57484 49.7118 2.60602 50.6794 2.63721C55.4554 2.94905 58.8111 3.10498 60.7464 3.10498C62.3072 3.10498 65.3351 2.96465 69.8301 2.68398C71.2036 2.62161 72.2649 2.57484 73.0141 2.54365V6.75361C71.7967 6.75361 70.7198 6.84716 69.7833 7.03427C68.8781 7.22138 68.1133 7.50205 67.489 7.87626C66.3028 8.6247 64.2582 12.476 61.3551 19.4303C60.1377 22.3305 59.1701 24.6069 58.4521 26.2597C51.9905 41.3532 47.3862 52.2679 44.6392 59.0039C41.8923 65.7086 40.5188 69.3884 40.5188 70.0433H30.92C30.92 69.2637 29.1252 63.8375 25.5354 53.7648C21.9768 43.6921 17.7627 32.5123 12.8931 20.2255C12.6434 19.5706 12.2688 18.635 11.7693 17.4188C8.89752 10.1216 5.69793 6.47294 2.17058 6.47294C2.04572 6.47294 1.84282 6.48854 1.56188 6.51972C1.31215 6.55091 1.12486 6.5665 1 6.5665V2.54365Z" stroke="#43A047" stroke-width="2"/>
<path d="M77.2282 2.54365C80.2873 2.73076 83.0811 2.87109 85.6096 2.96465C88.1692 3.0582 90.448 3.10498 92.4458 3.10498C94.4123 3.10498 96.613 3.0582 99.0478 2.96465C101.514 2.87109 104.245 2.73076 107.242 2.54365V6.75361H106.259C104.105 6.75361 102.56 6.9719 101.623 7.40849C100.718 7.84508 100.062 8.64029 99.6565 9.79413C99.3132 10.7609 99.0634 12.6631 98.9074 15.501C98.7513 18.3388 98.6732 23.4375 98.6732 30.7971V50.0226C98.6732 54.4197 98.7513 57.4758 98.9074 59.191C99.0947 60.875 99.4068 62.1068 99.8438 62.8864C100.281 63.666 101.014 64.2273 102.045 64.5704C103.075 64.9134 104.604 65.0849 106.633 65.0849H107.804V69.2949C104.37 69.1078 101.358 68.9674 98.7669 68.8739C96.176 68.7803 93.9753 68.7335 92.1648 68.7335C90.5104 68.7335 88.3721 68.7803 85.75 68.8739C83.1279 68.9674 80.0844 69.1078 76.6195 69.2949V65.0849H77.7901C79.8815 65.0849 81.4423 64.9134 82.4724 64.5704C83.5025 64.2273 84.2049 63.666 84.5795 62.8864C85.0477 62.0132 85.3755 60.5943 85.5627 58.6296C85.75 56.6338 85.8437 53.032 85.8437 47.8241V20.4594C85.8437 16.5924 85.75 13.8949 85.5627 12.3669C85.4067 10.8076 85.1101 9.6538 84.6731 8.90536C84.2673 8.15693 83.5493 7.61119 82.5192 7.26816C81.5203 6.92513 80.0688 6.75361 78.1647 6.75361H77.2282V2.54365Z" stroke="#43A047" stroke-width="2"/>
<path d="M114.78 2.54365C117.434 2.69958 119.931 2.82431 122.272 2.91787C124.645 2.98024 126.752 3.01142 128.593 3.01142C130.497 3.01142 132.62 2.98024 134.961 2.91787C137.334 2.82431 140.065 2.69958 143.155 2.54365V6.75361C142.968 6.75361 142.703 6.73802 142.359 6.70683C142.016 6.67565 141.782 6.66005 141.657 6.66005C139.035 6.66005 137.256 7.43968 136.319 8.99892C135.383 10.5582 134.914 14.0821 134.914 19.5706C134.914 20.3814 134.93 21.8471 134.961 23.9677C134.992 26.0882 135.008 27.819 135.008 29.1599L135.102 61.9976L135.383 62.0444C139.409 62.2939 142.453 62.4186 144.513 62.4186C152.348 62.4186 157.483 61.6078 159.918 59.9862C162.353 58.3646 164.351 55.2773 165.911 50.7243L170.219 52.034C169.251 54.8719 168.377 57.7253 167.597 60.5943C166.848 63.4633 166.192 66.3635 165.63 69.2949C160.105 69.1078 154.97 68.9674 150.226 68.8739C145.481 68.7803 141.142 68.7335 137.209 68.7335C133.307 68.7335 129.374 68.7803 125.409 68.8739C121.476 68.9674 117.559 69.1078 113.657 69.2949V65.1785H114.968C116.653 65.1785 117.949 65.007 118.854 64.6639C119.759 64.3209 120.415 63.7596 120.821 62.9799C121.695 61.2648 122.163 54.8563 122.225 43.7545C122.257 42.32 122.272 41.2285 122.272 40.48L122.366 30.2826C122.366 28.9105 122.381 27.1173 122.413 24.9032C122.444 22.6579 122.459 21.0986 122.459 20.2255C122.459 14.6122 121.991 10.948 121.055 9.23281C120.149 7.51764 118.417 6.66005 115.857 6.66005H114.78V2.54365Z" stroke="#43A047" stroke-width="2"/>
<path d="M174.527 2.54365C177.18 2.69958 179.677 2.82431 182.019 2.91787C184.391 2.98024 186.498 3.01142 188.34 3.01142C190.244 3.01142 192.367 2.98024 194.708 2.91787C197.08 2.82431 199.811 2.69958 202.902 2.54365V6.75361C202.714 6.75361 202.449 6.73802 202.106 6.70683C201.762 6.67565 201.528 6.66005 201.403 6.66005C198.781 6.66005 197.002 7.43968 196.066 8.99892C195.129 10.5582 194.661 14.0821 194.661 19.5706C194.661 20.3814 194.676 21.8471 194.708 23.9677C194.739 26.0882 194.755 27.819 194.755 29.1599L194.848 61.9976L195.129 62.0444C199.156 62.2939 202.199 62.4186 204.26 62.4186C212.095 62.4186 217.23 61.6078 219.664 59.9862C222.099 58.3646 224.097 55.2773 225.658 50.7243L229.966 52.034C228.998 54.8719 228.124 57.7253 227.343 60.5943C226.594 63.4633 225.939 66.3635 225.377 69.2949C219.852 69.1078 214.717 68.9674 209.972 68.8739C205.227 68.7803 200.888 68.7335 196.955 68.7335C193.053 68.7335 189.12 68.7803 185.156 68.8739C181.223 68.9674 177.305 69.1078 173.403 69.2949V65.1785H174.714C176.4 65.1785 177.695 65.007 178.6 64.6639C179.506 64.3209 180.161 63.7596 180.567 62.9799C181.441 61.2648 181.909 54.8563 181.972 43.7545C182.003 42.32 182.019 41.2285 182.019 40.48L182.112 30.2826C182.112 28.9105 182.128 27.1173 182.159 24.9032C182.19 22.6579 182.206 21.0986 182.206 20.2255C182.206 14.6122 181.738 10.948 180.801 9.23281C179.896 7.51764 178.163 6.66005 175.604 6.66005H174.527V2.54365Z" stroke="#43A047" stroke-width="2"/>
<path d="M264.849 13.4428L254.641 39.3106C255.828 39.3418 257.076 39.373 258.387 39.4042C259.73 39.4042 261.509 39.4042 263.725 39.4042C266.285 39.4042 268.283 39.4042 269.718 39.4042C271.154 39.373 272.497 39.3418 273.745 39.3106L264.849 13.4428ZM262.274 2.21621H273.698C278.193 15.3762 282.47 27.476 286.528 38.5154C290.617 49.5237 293.473 56.8521 295.097 60.5007C295.783 62.1535 296.642 63.3386 297.672 64.0558C298.733 64.7419 300.138 65.0849 301.886 65.0849H302.916V69.2949C298.952 69.1078 295.908 68.983 293.786 68.9206C291.663 68.8583 289.884 68.8271 288.448 68.8271C287.074 68.8271 285.295 68.8583 283.11 68.9206C280.925 68.983 277.756 69.1078 273.605 69.2949V65.0849H274.448C276.914 65.0849 278.584 64.8042 279.458 64.2429C280.332 63.6816 280.769 62.6837 280.769 61.2492C280.769 60.8126 280.706 60.298 280.581 59.7055C280.488 59.113 280.269 58.2866 279.926 57.2263L276.086 45.9062C274.307 45.875 271.966 45.8438 269.063 45.8127C266.16 45.7503 264.349 45.7191 263.631 45.7191C262.289 45.7191 259.589 45.7659 255.531 45.8594C254.064 45.8906 252.925 45.9062 252.113 45.9062L251.926 46.374C248.867 53.8272 247.337 58.5361 247.337 60.5007C247.337 62.1223 247.79 63.2918 248.695 64.009C249.631 64.7263 251.161 65.0849 253.284 65.0849H254.126V69.2949C250.568 69.1078 247.805 68.983 245.839 68.9206C243.872 68.8583 242.249 68.8271 240.969 68.8271C239.908 68.8271 238.503 68.8583 236.755 68.9206C235.038 68.983 232.525 69.1078 229.216 69.2949V65.0849C231.464 65.0849 233.259 64.6951 234.601 63.9155C235.943 63.1359 237.083 61.8261 238.019 59.9862C239.361 57.5538 242.389 50.7555 247.103 39.5913C251.816 28.4271 256.873 15.9687 262.274 2.21621Z" stroke="#43A047" stroke-width="2"/>
<path d="M397.124 4.83574C397.124 5.14759 397.109 5.64655 397.078 6.33261C397.046 6.9875 397.031 7.47086 397.031 7.78271C397.031 9.8721 397.124 12.0862 397.312 14.4251C397.499 16.764 397.796 19.3367 398.201 22.1433L393.566 22.9386C393.066 18.292 391.084 14.6902 387.619 12.133C384.154 9.54465 379.581 8.25048 373.9 8.25048C366.658 8.25048 361.039 10.5114 357.044 15.0332C353.079 19.5238 351.097 25.8855 351.097 34.1183C351.097 43.006 353.345 50.085 357.84 55.3552C362.366 60.6255 368.406 63.2606 375.96 63.2606C380.705 63.2606 384.748 62.1847 388.088 60.033C391.459 57.8812 394.19 54.6068 396.282 50.2097L400.402 52.1276C399.154 54.5912 398.061 57.008 397.124 59.3781C396.188 61.7169 395.392 64.0402 394.737 66.3479C390.959 67.876 387.26 69.0298 383.639 69.8094C380.05 70.6202 376.585 71.0256 373.245 71.0256C362.382 71.0256 353.579 67.8136 346.836 61.3895C340.094 54.9654 336.723 46.5767 336.723 36.2233C336.723 25.9947 340.25 17.5748 347.305 10.9636C354.39 4.32119 363.365 1 374.228 1C378.13 1 381.954 1.31185 385.7 1.93555C389.477 2.55924 393.285 3.52597 397.124 4.83574Z" stroke="#43A047" stroke-width="2"/>
<path d="M406.302 2.54365C409.361 2.73076 412.155 2.87109 414.683 2.96465C417.243 3.0582 419.522 3.10498 421.519 3.10498C423.486 3.10498 425.687 3.0582 428.121 2.96465C430.587 2.87109 433.319 2.73076 436.316 2.54365V6.75361H435.332C433.178 6.75361 431.633 6.9719 430.697 7.40849C429.791 7.84508 429.136 8.64029 428.73 9.79413C428.387 10.7609 428.137 12.6631 427.981 15.501C427.825 18.3388 427.747 23.4375 427.747 30.7971V50.0226C427.747 54.4197 427.825 57.4758 427.981 59.191C428.168 60.875 428.48 62.1068 428.917 62.8864C429.354 63.666 430.088 64.2273 431.118 64.5704C432.148 64.9134 433.678 65.0849 435.707 65.0849H436.877V69.2949C433.444 69.1078 430.431 68.9674 427.841 68.8739C425.25 68.7803 423.049 68.7335 421.238 68.7335C419.584 68.7335 417.446 68.7803 414.824 68.8739C412.202 68.9674 409.158 69.1078 405.693 69.2949V65.0849H406.864C408.955 65.0849 410.516 64.9134 411.546 64.5704C412.576 64.2273 413.279 63.666 413.653 62.8864C414.121 62.0132 414.449 60.5943 414.636 58.6296C414.824 56.6338 414.917 53.032 414.917 47.8241V20.4594C414.917 16.5924 414.824 13.8949 414.636 12.3669C414.48 10.8076 414.184 9.6538 413.747 8.90536C413.341 8.15693 412.623 7.61119 411.593 7.26816C410.594 6.92513 409.142 6.75361 407.238 6.75361H406.302V2.54365Z" stroke="#43A047" stroke-width="2"/>
<path d="M456.403 65.0849H458.135C460.227 65.0849 461.756 64.8666 462.724 64.43C463.691 63.9623 464.409 63.1514 464.878 61.9976C465.19 61.1244 465.408 59.0039 465.533 55.6359C465.658 52.2679 465.721 46.031 465.721 36.925V10.1684H457.667C452.766 10.1684 449.41 10.8544 447.6 12.2266C445.789 13.5987 444.541 16.2338 443.854 20.1319L439.453 19.1964C440.171 16.1091 440.717 13.1621 441.091 10.3555C441.497 7.51764 441.747 4.72659 441.841 1.98232C443.027 2.38773 444.697 2.68398 446.851 2.87109C449.005 3.02702 452.641 3.10498 457.761 3.10498H485.854C491.598 3.10498 495.594 3.02702 497.841 2.87109C500.12 2.68398 501.79 2.37213 502.851 1.93555V3.38564C502.851 5.81806 502.945 8.34404 503.132 10.9636C503.351 13.5519 503.663 16.2962 504.069 19.1964L499.855 19.8513C499.324 16.0467 498.247 13.4895 496.624 12.1798C495.001 10.8388 491.801 10.1684 487.025 10.1684H478.784C478.691 15.1579 478.628 20.0695 478.597 24.9032C478.566 29.7369 478.55 35.3657 478.55 41.7898V50.5372C478.55 54.6536 478.644 57.5382 478.831 59.191C479.018 60.8438 479.315 62.0756 479.721 62.8864C480.189 63.666 480.922 64.2273 481.921 64.5704C482.92 64.9134 484.325 65.0849 486.135 65.0849H487.774V69.2949C486.994 69.2637 485.839 69.2169 484.309 69.1545C478.191 68.8739 474.008 68.7335 471.761 68.7335C470.138 68.7335 468.046 68.7803 465.486 68.8739C462.958 68.9674 459.93 69.1078 456.403 69.2949V65.0849Z" stroke="#43A047" stroke-width="2"/>
<path d="M530.009 35.662C531.663 35.7555 533.068 35.8335 534.223 35.8959C535.378 35.9271 536.346 35.9426 537.126 35.9426C538.094 35.9426 539.124 35.9271 540.216 35.8959C541.309 35.8335 542.448 35.7555 543.634 35.662C546.35 33.9156 548.332 31.9354 549.581 29.7213C550.861 27.476 551.501 24.8564 551.501 21.8627C551.501 17.9646 550.174 14.8149 547.521 12.4137C544.899 9.98124 541.402 8.76503 537.032 8.76503C535.69 8.76503 534.457 8.81181 533.333 8.90536C532.241 8.99892 531.164 9.13925 530.102 9.32636C530.071 12.7255 530.04 16.2806 530.009 19.9916C530.009 23.7026 530.009 28.9261 530.009 35.662ZM509.032 65.1785C509.282 65.2096 509.516 65.2408 509.734 65.272C509.984 65.272 510.359 65.272 510.858 65.272C513.418 65.272 515.135 64.43 516.009 62.746C516.914 61.0621 517.367 56.6026 517.367 49.3677V40.9478L517.554 30.4697C517.585 28.2556 517.601 26.057 517.601 23.8741C517.632 21.6912 517.647 19.0716 517.647 16.0155C517.647 12.0862 517.164 9.54465 516.196 8.39081C515.259 7.23697 513.48 6.66005 510.858 6.66005H509.875V2.54365C513.215 2.69958 515.977 2.82431 518.163 2.91787C520.348 2.98024 522.252 3.01142 523.875 3.01142C526.185 3.01142 529.057 2.93346 532.49 2.77754C535.924 2.62161 538.234 2.54365 539.42 2.54365C547.162 2.54365 553.264 4.14967 557.728 7.36171C562.192 10.5738 564.424 14.9396 564.424 20.4594C564.424 24.1392 563.3 27.3824 561.053 30.189C558.836 32.9957 555.496 35.3969 551.032 37.3927L560.21 50.3033C564.58 57.1016 567.764 61.3739 569.762 63.1203C571.791 64.8666 573.945 65.7398 576.223 65.7398C576.348 65.7398 576.52 65.7242 576.738 65.693C576.988 65.6618 577.175 65.6462 577.3 65.6462V69.5755C575.396 69.7315 573.742 69.8406 572.337 69.903C570.932 69.9965 569.699 70.0433 568.638 70.0433C564.83 70.0433 561.849 69.6223 559.695 68.7803C557.541 67.9383 555.605 66.4882 553.889 64.43C553.077 63.4633 551.079 60.3604 547.895 55.1213C544.711 49.8511 541.917 45.3449 539.514 41.6027C537.579 41.6651 535.862 41.7118 534.363 41.743C532.865 41.7742 531.414 41.7898 530.009 41.7898V54.2326C530.009 59.0039 530.477 62.0132 531.414 63.2606C532.35 64.4768 534.192 65.0849 536.939 65.0849H538.25V69.2949C535.69 69.1389 533.13 69.0298 530.571 68.9674C528.011 68.8739 525.389 68.8271 522.704 68.8271C521.83 68.8271 520.535 68.8583 518.818 68.9206C517.132 68.9518 513.87 69.0766 509.032 69.2949V65.1785Z" stroke="#43A047" stroke-width="2"/>
<path d="M612.933 13.4428L602.725 39.3106C603.911 39.3418 605.16 39.373 606.471 39.4042C607.813 39.4042 609.593 39.4042 611.809 39.4042C614.369 39.4042 616.366 39.4042 617.802 39.4042C619.238 39.373 620.581 39.3418 621.829 39.3106L612.933 13.4428ZM610.357 2.21621H621.782C626.277 15.3762 630.554 27.476 634.612 38.5154C638.701 49.5237 641.557 56.8521 643.181 60.5007C643.867 62.1535 644.726 63.3386 645.756 64.0558C646.817 64.7419 648.222 65.0849 649.97 65.0849H651V69.2949C647.036 69.1078 643.992 68.983 641.87 68.9206C639.747 68.8583 637.968 68.8271 636.532 68.8271C635.158 68.8271 633.379 68.8583 631.194 68.9206C629.009 68.983 625.84 69.1078 621.689 69.2949V65.0849H622.531C624.997 65.0849 626.668 64.8042 627.542 64.2429C628.416 63.6816 628.853 62.6837 628.853 61.2492C628.853 60.8126 628.79 60.298 628.665 59.7055C628.572 59.113 628.353 58.2866 628.01 57.2263L624.17 45.9062C622.391 45.875 620.05 45.8438 617.147 45.8127C614.244 45.7503 612.433 45.7191 611.715 45.7191C610.373 45.7191 607.673 45.7659 603.615 45.8594C602.148 45.8906 601.008 45.9062 600.197 45.9062L600.01 46.374C596.95 53.8272 595.421 58.5361 595.421 60.5007C595.421 62.1223 595.873 63.2918 596.779 64.009C597.715 64.7263 599.245 65.0849 601.367 65.0849H602.21V69.2949C598.652 69.1078 595.889 68.983 593.922 68.9206C591.956 68.8583 590.333 68.8271 589.053 68.8271C587.992 68.8271 586.587 68.8583 584.839 68.9206C583.122 68.983 580.609 69.1078 577.3 69.2949V65.0849C579.548 65.0849 581.343 64.6951 582.685 63.9155C584.027 63.1359 585.167 61.8261 586.103 59.9862C587.445 57.5538 590.473 50.7555 595.187 39.5913C599.9 28.4271 604.957 15.9687 610.357 2.21621Z" stroke="#43A047" stroke-width="2"/>
<path d="M469.369 132.812C461.088 132.812 454.62 130.871 449.966 126.988C445.791 123.515 443.703 119.053 443.703 113.604C443.703 107.542 446.236 102.093 451.301 97.2563C456.913 91.8753 464.305 88.742 473.476 87.8565C472.723 86.7667 472.073 85.6087 471.525 84.3826C469.609 84.3145 467.761 84.1783 465.981 83.974C464.202 83.7015 462.525 83.395 460.951 83.0544C455.27 81.6921 450.856 79.5124 447.707 76.5154C444.833 73.7227 443.395 70.6916 443.395 67.422C443.395 63.7438 445.175 60.6446 448.734 58.1244C452.293 55.7403 456.776 54.5483 462.183 54.5483C464.784 54.5483 467.419 54.8549 470.088 55.4679C472.757 56.0128 475.427 56.9324 478.096 58.2265C478.301 58.2947 478.404 58.499 478.404 58.8396C478.404 59.5207 478.096 59.7251 477.48 59.4526C472.484 57.0686 467.59 55.8766 462.799 55.8766C458.555 55.8766 455.168 56.9324 452.635 59.0439C450.103 61.1555 448.837 63.9141 448.837 67.3199C448.837 70.385 449.966 73.2118 452.225 75.8002C454.825 78.661 458.35 80.6023 462.799 81.624C464.099 81.8965 465.434 82.1349 466.803 82.3392C468.172 82.5435 469.575 82.6798 471.012 82.7479C470.738 81.6581 470.601 80.3979 470.601 78.9675C470.601 74.1314 472.552 69.772 476.453 65.8895C481.107 61.2577 487.712 58.2265 496.267 56.7961C497.157 56.6599 498.013 56.5577 498.834 56.4896C499.724 56.4215 500.579 56.3874 501.4 56.3874C505.096 56.3874 508.108 57.1708 510.435 58.7374C512.762 60.2359 513.925 62.2453 513.925 64.7656C513.925 68.7162 511.154 72.6328 505.61 76.5154C498.56 81.3515 488.704 83.974 476.043 84.3826C476.111 85.4725 476.385 86.5283 476.864 87.55C478.027 87.4819 479.191 87.4819 480.354 87.55C481.518 87.55 482.681 87.584 483.845 87.6522C486.309 87.8565 487.541 88.7761 487.541 90.4108C487.541 91.9775 486.206 92.7608 483.537 92.7608C480.046 92.7608 477.103 91.5688 474.708 89.1847C468.411 90.2065 463.244 93.3738 459.206 98.6868C455.578 103.659 453.764 109.074 453.764 114.932C453.764 119.7 455.031 123.549 457.563 126.478C460.301 129.815 464.236 131.484 469.369 131.484C472.655 131.484 475.769 130.803 478.712 129.441C481.655 128.078 484.29 126.307 486.617 124.128C488.944 121.948 490.758 119.666 492.058 117.282C493.427 114.898 494.111 112.684 494.111 110.641C494.111 108.734 493.393 107.167 491.955 105.941C490.587 104.647 488.328 104 485.18 104C483.058 104 480.765 104.511 478.301 105.532C475.906 106.486 473.579 107.746 471.32 109.313C469.061 110.811 467.111 112.378 465.468 114.013C463.826 115.647 462.73 117.078 462.183 118.304C462.046 118.713 461.772 118.815 461.362 118.61C460.951 118.406 460.814 118.099 460.951 117.691C461.704 115.92 462.936 114.115 464.647 112.276C466.358 110.437 468.377 108.7 470.704 107.065C473.031 105.43 475.529 104.136 478.198 103.182C480.868 102.161 483.571 101.65 486.309 101.65C491.511 101.65 495.275 102.569 497.602 104.408C499.929 106.248 501.093 108.461 501.093 111.05C501.093 113.366 500.305 115.784 498.731 118.304C497.157 120.824 494.933 123.208 492.058 125.456C489.252 127.636 485.898 129.407 481.997 130.769C478.164 132.131 473.955 132.812 469.369 132.812ZM476.043 82.6457C486.72 82.1008 495.651 79.3421 502.838 74.3698C508.655 70.2829 511.564 66.7409 511.564 63.7438C511.564 60.6787 509.066 59.1461 504.07 59.1461C497.294 59.1461 490.758 61.9388 484.461 67.5242C479.259 72.0879 476.453 77.1284 476.043 82.6457Z" fill="white"/>
<path d="M514.432 126.784C511.01 126.784 508.375 125.762 506.527 123.719C505.022 122.016 504.269 119.973 504.269 117.589C504.269 114.115 505.364 112.378 507.554 112.378C508.375 112.378 509.128 112.684 509.813 113.297C510.497 113.979 510.839 114.762 510.839 115.647C510.839 116.192 510.702 116.635 510.428 116.976C509.539 118.065 509.094 119.257 509.094 120.552C509.094 121.846 509.505 122.902 510.326 123.719C511.216 124.604 512.345 125.047 513.714 125.047C515.151 125.047 516.451 124.57 517.615 123.617C519.189 122.186 519.976 120.211 519.976 117.691C519.976 115.511 519.394 113.059 518.231 110.334C517.752 109.653 517.17 108.768 516.486 107.678C515.87 106.588 515.151 105.294 514.33 103.795C513.851 102.978 513.508 102.161 513.303 101.343C513.166 100.458 513.098 99.6063 513.098 98.7889C513.098 95.9281 514.159 93.6463 516.28 91.9434C518.47 90.1724 521.277 89.2869 524.699 89.2869C525.657 89.2869 526.581 89.3891 527.471 89.5934C528.429 89.7978 529.284 90.1724 530.037 90.7173C531.611 91.8753 532.399 93.3057 532.399 95.0086C532.399 95.7578 532.262 96.439 531.988 97.052C531.372 98.823 530.037 99.7085 527.984 99.7085C525.725 99.7085 524.596 98.5505 524.596 96.2346C524.596 95.5535 524.699 94.9745 524.904 94.4977C525.109 93.8166 525.862 93.1354 527.163 92.4543C526.684 91.5688 525.794 91.126 524.493 91.126C523.33 91.126 522.474 91.3985 521.927 91.9434C520.284 93.3738 519.463 95.1788 519.463 97.3585C519.463 98.857 519.874 100.492 520.695 102.263C520.832 102.535 522.166 104.681 524.699 108.7C526.41 111.424 527.265 113.706 527.265 115.545C527.265 118.474 525.897 121.062 523.159 123.31C520.421 125.626 517.512 126.784 514.432 126.784Z" fill="white"/>
<path d="M540.614 126.375C536.165 126.375 533.941 123.957 533.941 119.121C533.941 118.168 534.009 117.18 534.146 116.158C534.352 115.137 534.66 114.115 535.07 113.093C538.698 103.557 541.778 95.7919 544.31 89.7978H537.637L538.869 87.55H545.234L547.698 80.3979C548.588 77.8777 549.34 76.3791 549.956 75.9023C550.436 75.5618 551.531 75.3915 553.242 75.3915L557.656 75.4937C556.287 76.6516 555.261 78.048 554.576 79.6827L551.188 87.55H558.991L557.759 89.7978H550.264C549.785 90.8876 549.306 91.9775 548.827 93.0673C548.417 94.1571 547.937 95.281 547.39 96.439C545.953 99.5723 544.721 102.535 543.694 105.328C542.462 108.529 541.47 111.288 540.717 113.604C540.032 115.92 539.622 117.759 539.485 119.121C539.211 122.459 540.101 124.128 542.154 124.128C544.07 124.128 546.397 122.084 549.135 117.997L550.367 119.428C547.082 124.06 543.831 126.375 540.614 126.375Z" fill="white"/>
<path d="M578.779 126.58C577.274 126.58 576.042 126.137 575.083 125.252C573.715 124.094 573.03 122.152 573.03 119.428C573.03 117.657 573.338 115.647 573.954 113.4C571.627 117.282 569.197 120.449 566.665 122.902C564.064 125.286 561.737 126.478 559.684 126.478C557.904 126.478 556.501 125.694 555.475 124.128C554.38 122.629 553.832 120.552 553.832 117.895C553.832 111.424 556.741 104.749 562.558 97.8694C563.517 96.7114 564.612 95.6557 565.844 94.702C567.076 93.7484 568.41 92.897 569.848 92.1477C572.791 90.6492 575.631 89.8999 578.369 89.8999C581.722 89.8999 584.392 90.9898 586.376 93.1695C586.856 93.6463 587.095 94.1912 587.095 94.8042C587.095 95.9622 586.479 96.4049 585.247 96.1325C584.563 93.6803 582.954 92.4543 580.422 92.4543C577.547 92.4543 574.159 94.4636 570.258 98.4824C568.889 99.9809 567.589 101.548 566.357 103.182C565.125 104.749 563.962 106.418 562.866 108.189C559.923 113.093 558.452 117.078 558.452 120.143C558.452 122.459 559.342 123.617 561.121 123.617C563.106 123.617 565.399 122.118 568 119.121C569.437 117.486 570.908 115.477 572.414 113.093C573.92 110.709 575.494 107.95 577.137 104.817C577.821 103.523 578.437 102.467 578.985 101.65C579.532 100.832 579.977 100.219 580.319 99.8107C581.414 98.7208 582.715 98.21 584.221 98.2781L586.274 98.5846C587.164 98.7889 587.916 98.823 588.532 98.6868C587.916 99.2998 587.164 100.287 586.274 101.65C585.453 102.944 584.494 104.647 583.399 106.758C582.236 109.006 581.278 111.05 580.525 112.889C579.772 114.728 579.258 116.363 578.985 117.793C578.848 118.474 578.745 119.121 578.677 119.734C578.608 120.279 578.574 120.79 578.574 121.267C578.574 123.038 579.053 123.923 580.011 123.923C581.38 123.923 583.262 122.425 585.658 119.428L586.068 118.917L587.506 119.836L587.095 120.449C584.289 124.536 581.517 126.58 578.779 126.58Z" fill="white"/>
<path d="M599.866 126.375C595.418 126.375 593.193 123.957 593.193 119.121C593.193 118.168 593.262 117.18 593.399 116.158C593.604 115.137 593.912 114.115 594.323 113.093C597.95 103.557 601.03 95.7919 603.562 89.7978H596.889L598.121 87.55H604.486L606.95 80.3979C607.84 77.8777 608.593 76.3791 609.209 75.9023C609.688 75.5618 610.783 75.3915 612.494 75.3915L616.909 75.4937C615.54 76.6516 614.513 78.048 613.829 79.6827L610.441 87.55H618.243L617.011 89.7978H609.517C609.038 90.8876 608.559 91.9775 608.079 93.0673C607.669 94.1571 607.19 95.281 606.642 96.439C605.205 99.5723 603.973 102.535 602.946 105.328C601.714 108.529 600.722 111.288 599.969 113.604C599.285 115.92 598.874 117.759 598.737 119.121C598.463 122.459 599.353 124.128 601.406 124.128C603.323 124.128 605.65 122.084 608.387 117.997L609.619 119.428C606.334 124.06 603.083 126.375 599.866 126.375Z" fill="white"/>
<path d="M622.837 126.784C620.168 126.784 617.875 125.933 615.959 124.23C614.932 123.276 614.179 122.186 613.7 120.96C613.29 119.666 613.084 118.202 613.084 116.567C613.084 110.3 615.685 104.068 620.887 97.8694C625.267 92.6245 629.819 90.0021 634.541 90.0021C636.115 90.0021 637.45 90.4108 638.545 91.2282C639.708 92.1818 640.29 93.4079 640.29 94.9064C640.29 98.6527 637.792 102.399 632.796 106.145C631.222 107.303 629.134 108.325 626.533 109.211C623.659 110.164 621.571 110.641 620.271 110.641C619.313 112.957 618.834 115.409 618.834 117.997C618.834 122.425 620.476 124.639 623.761 124.639C628.073 124.639 632.111 121.846 635.876 116.26L636.286 115.647L638.032 116.363L637.724 116.976C636.013 120.381 633.857 122.868 631.256 124.434C628.655 126.001 625.849 126.784 622.837 126.784ZM620.887 108.904C622.05 108.904 623.659 108.529 625.712 107.78C626.876 107.303 627.971 106.792 628.997 106.248C630.092 105.703 631.051 105.09 631.872 104.408C635.636 101.275 637.518 97.9716 637.518 94.4977C637.518 92.9992 636.971 92.2499 635.876 92.2499C633.959 92.2499 631.051 94.5999 627.149 99.2998C625.164 101.684 623.077 104.885 620.887 108.904Z" fill="white"/>
</svg>
