<svg width="1086" height="93" viewBox="0 0 1086 93" fill="none" xmlns="http://www.w3.org/2000/svg">
<path d="M886.312 93C876.637 93 869.08 90.7226 863.643 86.1679C858.765 82.0925 856.326 76.8586 856.326 70.4659C856.326 63.3541 859.285 56.9614 865.202 51.2879C871.759 44.9752 880.395 41.2994 891.11 40.2606C890.23 38.9821 889.471 37.6236 888.831 36.1853C886.592 36.1054 884.433 35.9456 882.354 35.7058C880.275 35.3862 878.316 35.0266 876.477 34.6271C869.84 33.0289 864.682 30.4719 861.004 26.9559C857.646 23.6797 855.966 20.1237 855.966 16.2882C855.966 11.9731 858.045 8.33729 862.203 5.38069C866.362 2.5839 871.599 1.18551 877.916 1.18551C880.955 1.18551 884.033 1.5451 887.152 2.26427C890.27 2.90353 893.389 3.98229 896.507 5.50055C896.747 5.58046 896.867 5.82019 896.867 6.21973C896.867 7.01881 896.507 7.25853 895.787 6.9389C889.95 4.14211 884.233 2.74372 878.636 2.74372C873.678 2.74372 869.72 3.98229 866.761 6.45945C863.803 8.9366 862.323 12.1729 862.323 16.1683C862.323 19.7642 863.643 23.0803 866.282 26.1169C869.32 29.473 873.438 31.7504 878.636 32.949C880.155 33.2686 881.714 33.5483 883.313 33.788C884.913 34.0278 886.552 34.1876 888.231 34.2675C887.911 32.989 887.751 31.5107 887.751 29.8326C887.751 24.1591 890.03 19.045 894.588 14.4902C900.025 9.05647 907.742 5.50055 917.737 3.82248C918.777 3.66266 919.776 3.5428 920.736 3.46289C921.775 3.38298 922.775 3.34303 923.734 3.34303C928.052 3.34303 931.57 4.26197 934.289 6.09986C937.008 7.85784 938.367 10.2151 938.367 13.1717C938.367 17.8064 935.129 22.4011 928.652 26.9559C920.416 32.6294 908.901 35.7058 894.108 36.1853C894.188 37.4638 894.508 38.7024 895.068 39.901C896.427 39.8211 897.787 39.8211 899.146 39.901C900.505 39.901 901.865 39.941 903.224 40.0209C906.103 40.2606 907.542 41.3394 907.542 43.2572C907.542 45.0951 905.983 46.014 902.864 46.014C898.786 46.014 895.348 44.6156 892.549 41.8188C885.193 43.0174 879.155 46.7332 874.438 52.966C870.2 58.7993 868.081 65.152 868.081 72.0241C868.081 77.6177 869.56 82.1325 872.519 85.5685C875.717 89.484 880.315 91.4418 886.312 91.4418C890.15 91.4418 893.788 90.6427 897.227 89.0445C900.665 87.4464 903.744 85.3688 906.462 82.8117C909.181 80.2546 911.3 77.5777 912.819 74.7809C914.419 71.9842 915.218 69.3871 915.218 66.9899C915.218 64.7525 914.379 62.9146 912.699 61.4762C911.1 59.958 908.461 59.1988 904.783 59.1988C902.304 59.1988 899.626 59.7982 896.747 60.9968C893.948 62.1155 891.23 63.5938 888.591 65.4317C885.952 67.1897 883.673 69.0275 881.754 70.9453C879.835 72.8631 878.556 74.5412 877.916 75.9796C877.756 76.459 877.436 76.5789 876.956 76.3391C876.477 76.0994 876.317 75.7398 876.477 75.2604C877.356 73.1828 878.796 71.0652 880.795 68.9077C882.794 66.7502 885.153 64.7125 887.871 62.7947C890.59 60.8769 893.509 59.3587 896.627 58.2399C899.746 57.0413 902.904 56.442 906.103 56.442C912.18 56.442 916.578 57.5208 919.296 59.6783C922.015 61.8358 923.374 64.4328 923.374 67.4693C923.374 70.1862 922.455 73.023 920.616 75.9796C918.777 78.9362 916.178 81.7329 912.819 84.3699C909.541 86.927 905.623 89.0046 901.065 90.6028C896.587 92.2009 891.669 93 886.312 93ZM894.108 34.1476C906.582 33.5084 917.017 30.2721 925.413 24.4388C932.21 19.6443 935.609 15.4891 935.609 11.9731C935.609 8.37724 932.69 6.57931 926.853 6.57931C918.936 6.57931 911.3 9.85554 903.944 16.408C897.867 21.7619 894.588 27.6751 894.108 34.1476Z" fill="#43A047"/>
<path d="M938.959 85.9281C934.961 85.9281 931.883 84.7295 929.724 82.3323C927.965 80.3345 927.085 77.9373 927.085 75.1405C927.085 71.0652 928.364 69.0275 930.923 69.0275C931.883 69.0275 932.762 69.3871 933.562 70.1063C934.362 70.9054 934.761 71.8243 934.761 72.8631C934.761 73.5024 934.602 74.0218 934.282 74.4213C933.242 75.6999 932.722 77.0983 932.722 78.6165C932.722 80.1348 933.202 81.3734 934.162 82.3323C935.201 83.3711 936.521 83.8905 938.12 83.8905C939.799 83.8905 941.318 83.3311 942.678 82.2124C944.517 80.5343 945.436 78.217 945.436 75.2604C945.436 72.7033 944.757 69.8266 943.397 66.6303C942.838 65.8312 942.158 64.7924 941.358 63.5139C940.639 62.2354 939.799 60.7171 938.839 58.9591C938.28 58.0002 937.88 57.0413 937.64 56.0824C937.48 55.0436 937.4 54.0448 937.4 53.0859C937.4 49.7297 938.64 47.0528 941.118 45.0551C943.677 42.9775 946.956 41.9387 950.954 41.9387C952.073 41.9387 953.153 42.0585 954.192 42.2983C955.312 42.538 956.311 42.9775 957.191 43.6167C959.03 44.9752 959.949 46.6533 959.949 48.651C959.949 49.53 959.789 50.329 959.47 51.0482C958.75 53.1258 957.191 54.1646 954.792 54.1646C952.153 54.1646 950.834 52.8062 950.834 50.0893C950.834 49.2902 950.954 48.611 951.194 48.0517C951.433 47.2526 952.313 46.4535 953.832 45.6544C953.273 44.6156 952.233 44.0962 950.714 44.0962C949.354 44.0962 948.355 44.4158 947.715 45.0551C945.796 46.7332 944.837 48.8507 944.837 51.4078C944.837 53.1658 945.316 55.0836 946.276 57.1612C946.436 57.4808 947.995 59.9979 950.954 64.7125C952.953 67.9088 953.952 70.5858 953.952 72.7433C953.952 76.1793 952.353 79.2158 949.155 81.8528C945.956 84.5697 942.558 85.9281 938.959 85.9281Z" fill="#43A047"/>
<path d="M969.548 85.4487C964.35 85.4487 961.751 82.6119 961.751 76.9385C961.751 75.8197 961.831 74.6611 961.991 73.4625C962.231 72.2638 962.591 71.0652 963.071 69.8666C967.309 58.6794 970.907 49.5699 973.866 42.538H966.069L967.509 39.901H974.945L977.824 31.5107C978.863 28.5541 979.743 26.7961 980.462 26.2367C981.022 25.8372 982.302 25.6374 984.301 25.6374L989.458 25.7573C987.859 27.1157 986.66 28.7538 985.86 30.6716L981.902 39.901H991.017L989.578 42.538H980.822C980.263 43.8165 979.703 45.0951 979.143 46.3736C978.663 47.6521 978.104 48.9706 977.464 50.329C975.785 54.0048 974.345 57.4808 973.146 60.7571C971.707 64.5127 970.547 67.749 969.668 70.4659C968.868 73.1828 968.388 75.3403 968.228 76.9385C967.908 80.854 968.948 82.8117 971.347 82.8117C973.586 82.8117 976.304 80.4145 979.503 75.62L980.942 77.298C977.104 82.7318 973.306 85.4487 969.548 85.4487Z" fill="#43A047"/>
<path d="M1014.14 85.6884C1012.38 85.6884 1010.94 85.169 1009.82 84.1302C1008.22 82.7718 1007.42 80.4944 1007.42 77.298C1007.42 75.2204 1007.78 72.8631 1008.5 70.2262C1005.78 74.7809 1002.94 78.4967 999.983 81.3734C996.945 84.1701 994.226 85.5685 991.827 85.5685C989.748 85.5685 988.109 84.6496 986.909 82.8117C985.63 81.0537 984.99 78.6165 984.99 75.5001C984.99 67.9088 988.389 60.0778 995.185 52.0071C996.305 50.6487 997.584 49.4101 999.024 48.2914C1000.46 47.1727 1002.02 46.1738 1003.7 45.2948C1007.14 43.5368 1010.46 42.6578 1013.66 42.6578C1017.57 42.6578 1020.69 43.9364 1023.01 46.4934C1023.57 47.0528 1023.85 47.6921 1023.85 48.4112C1023.85 49.7697 1023.13 50.2891 1021.69 49.9695C1020.89 47.0928 1019.01 45.6544 1016.06 45.6544C1012.7 45.6544 1008.74 48.0117 1004.18 52.7263C1002.58 54.4843 1001.06 56.3221 999.623 58.2399C998.184 60.0778 996.825 62.0356 995.545 64.1132C992.107 69.8666 990.388 74.5412 990.388 78.1371C990.388 80.854 991.427 82.2124 993.506 82.2124C995.825 82.2124 998.504 80.4544 1001.54 76.9385C1003.22 75.0207 1004.94 72.6634 1006.7 69.8666C1008.46 67.0698 1010.3 63.8335 1012.22 60.1577C1013.02 58.6395 1013.74 57.4009 1014.38 56.442C1015.02 55.4831 1015.54 54.7639 1015.94 54.2845C1017.21 53.006 1018.73 52.4067 1020.49 52.4866L1022.89 52.8461C1023.93 53.0859 1024.81 53.1258 1025.53 52.966C1024.81 53.6852 1023.93 54.8438 1022.89 56.442C1021.93 57.9603 1020.81 59.958 1019.53 62.4351C1018.17 65.0721 1017.05 67.4693 1016.18 69.6269C1015.3 71.7844 1014.7 73.7022 1014.38 75.3802C1014.22 76.1793 1014.1 76.9385 1014.02 77.6576C1013.94 78.2969 1013.9 78.8962 1013.9 79.4556C1013.9 81.5332 1014.46 82.572 1015.58 82.572C1017.17 82.572 1019.37 80.814 1022.17 77.298L1022.65 76.6987L1024.33 77.7775L1023.85 78.4967C1020.57 83.2912 1017.33 85.6884 1014.14 85.6884Z" fill="#43A047"/>
<path d="M1038.77 85.4487C1033.57 85.4487 1030.98 82.6119 1030.98 76.9385C1030.98 75.8197 1031.06 74.6611 1031.22 73.4625C1031.46 72.2638 1031.82 71.0652 1032.3 69.8666C1036.53 58.6794 1040.13 49.5699 1043.09 42.538H1035.29L1036.73 39.901H1044.17L1047.05 31.5107C1048.09 28.5541 1048.97 26.7961 1049.69 26.2367C1050.25 25.8372 1051.53 25.6374 1053.53 25.6374L1058.68 25.7573C1057.08 27.1157 1055.88 28.7538 1055.08 30.6716L1051.13 39.901H1060.24L1058.8 42.538H1050.05C1049.49 43.8165 1048.93 45.0951 1048.37 46.3736C1047.89 47.6521 1047.33 48.9706 1046.69 50.329C1045.01 54.0048 1043.57 57.4808 1042.37 60.7571C1040.93 64.5127 1039.77 67.749 1038.89 70.4659C1038.09 73.1828 1037.61 75.3403 1037.45 76.9385C1037.13 80.854 1038.17 82.8117 1040.57 82.8117C1042.81 82.8117 1045.53 80.4145 1048.73 75.62L1050.17 77.298C1046.33 82.7318 1042.53 85.4487 1038.77 85.4487Z" fill="#43A047"/>
<path d="M1065.61 85.9281C1062.49 85.9281 1059.81 84.9293 1057.57 82.9316C1056.37 81.8129 1055.49 80.5343 1054.93 79.096C1054.45 77.5777 1054.22 75.8597 1054.22 73.9419C1054.22 66.5904 1057.25 59.2788 1063.33 52.0071C1068.45 45.8542 1073.77 42.7777 1079.28 42.7777C1081.12 42.7777 1082.68 43.2572 1083.96 44.2161C1085.32 45.3348 1086 46.7731 1086 48.5311C1086 52.9261 1083.08 57.321 1077.24 61.716C1075.41 63.0744 1072.97 64.273 1069.93 65.3118C1066.57 66.4305 1064.13 66.9899 1062.61 66.9899C1061.49 69.7068 1060.93 72.5835 1060.93 75.62C1060.93 80.814 1062.85 83.411 1066.69 83.411C1071.73 83.411 1076.44 80.1348 1080.84 73.5823L1081.32 72.8631L1083.36 73.7022L1083 74.4213C1081 78.4168 1078.48 81.3334 1075.44 83.1713C1072.41 85.0092 1069.13 85.9281 1065.61 85.9281ZM1063.33 64.9522C1064.69 64.9522 1066.57 64.5127 1068.97 63.6337C1070.33 63.0744 1071.61 62.4751 1072.81 61.8358C1074.09 61.1965 1075.21 60.4774 1076.16 59.6783C1080.56 56.0025 1082.76 52.127 1082.76 48.0517C1082.76 46.2937 1082.12 45.4147 1080.84 45.4147C1078.6 45.4147 1075.21 48.1715 1070.65 53.6852C1068.33 56.482 1065.89 60.2376 1063.33 64.9522Z" fill="#43A047"/>
<path d="M0 1.93137C1.32749 1.97039 3.18208 2.04843 5.56376 2.16548C11.6937 2.47762 15.7933 2.63369 17.8626 2.63369C20.5957 2.63369 25.6323 2.45811 32.9726 2.10695C34.8467 2.02892 36.2913 1.97039 37.3065 1.93137V7.02318C33.6363 7.10121 31.2351 7.49139 30.1029 8.19371C29.0096 8.89603 28.463 10.2421 28.463 12.232C28.463 12.9734 28.5997 13.9098 28.873 15.0413C29.1463 16.1728 29.6734 17.9091 30.4542 20.2502L47.4383 67.8907L47.7897 66.9543C61.2599 33.3991 67.995 15.0413 67.995 11.8809C67.995 10.047 67.4288 8.77897 66.2966 8.07666C65.1643 7.37434 62.8607 6.98416 59.3858 6.90613V1.93137C60.0105 1.97039 60.928 2.00941 62.1384 2.04843C68.1121 2.4386 72.3093 2.63369 74.73 2.63369C76.6822 2.63369 80.4695 2.45811 86.0918 2.10695C87.8097 2.02892 89.1372 1.97039 90.0743 1.93137V7.19876C88.5516 7.19876 87.2046 7.31581 86.0332 7.54992C84.901 7.78402 83.9444 8.13518 83.1635 8.60339C81.6799 9.53982 79.1225 14.3585 75.4914 23.0594C73.9687 26.6881 72.7583 29.5364 71.8603 31.6043C63.7782 50.4889 58.0192 64.145 54.5834 72.5729C51.1475 80.9616 49.4296 85.5657 49.4296 86.3851H37.4236C37.4236 85.4097 35.1786 78.6206 30.6885 66.0179C26.2375 53.4152 20.9666 39.4273 14.8757 24.0544C14.5634 23.235 14.0949 22.0645 13.4701 20.5428C9.87811 11.4127 5.87611 6.8476 1.46415 6.8476C1.30797 6.8476 1.05419 6.86711 0.70279 6.90613C0.390439 6.94514 0.156176 6.96465 0 6.96465V1.93137Z" fill="#43A047"/>
<path d="M95.3452 1.93137C99.1715 2.16548 102.666 2.34106 105.829 2.45811C109.03 2.57517 111.88 2.63369 114.379 2.63369C116.839 2.63369 119.591 2.57517 122.637 2.45811C125.721 2.34106 129.138 2.16548 132.886 1.93137V7.19876H131.656C128.962 7.19876 127.029 7.47188 125.858 8.01813C124.726 8.56438 123.906 9.55933 123.398 11.003C122.969 12.2125 122.656 14.5926 122.461 18.1432C122.266 21.6938 122.168 28.0732 122.168 37.2814V61.3358C122.168 66.8373 122.266 70.661 122.461 72.807C122.695 74.9139 123.086 76.4551 123.633 77.4305C124.179 78.406 125.097 79.1083 126.385 79.5375C127.674 79.9667 129.587 80.1813 132.125 80.1813H133.589V85.4487C129.294 85.2146 125.526 85.039 122.286 84.9219C119.045 84.8049 116.292 84.7464 114.028 84.7464C111.958 84.7464 109.284 84.8049 106.004 84.9219C102.725 85.039 98.9177 85.2146 94.5839 85.4487V80.1813H96.048C98.6639 80.1813 100.616 79.9667 101.905 79.5375C103.193 79.1083 104.072 78.406 104.54 77.4305C105.126 76.3381 105.536 74.5628 105.77 72.1046C106.004 69.6075 106.121 65.101 106.121 58.585V24.347C106.121 19.5088 106.004 16.1338 105.77 14.2219C105.575 12.2711 105.204 10.8274 104.657 9.89098C104.15 8.95455 103.252 8.27174 101.963 7.84255C100.714 7.41336 98.8982 7.19876 96.5165 7.19876H95.3452V1.93137Z" fill="#43A047"/>
<path d="M142.315 1.93137C145.634 2.12646 148.757 2.28253 151.686 2.39959C154.653 2.47762 157.288 2.51664 159.592 2.51664C161.974 2.51664 164.629 2.47762 167.557 2.39959C170.524 2.28253 173.941 2.12646 177.806 1.93137V7.19876C177.572 7.19876 177.24 7.17925 176.81 7.14023C176.381 7.10121 176.088 7.08171 175.932 7.08171C172.652 7.08171 170.427 8.05715 169.255 10.008C168.084 11.9589 167.498 16.3679 167.498 23.235C167.498 24.2495 167.518 26.0833 167.557 28.7365C167.596 31.3897 167.615 33.5552 167.615 35.2329L167.733 76.3185L168.084 76.3771C173.121 76.6892 176.927 76.8453 179.504 76.8453C189.304 76.8453 195.727 75.8308 198.773 73.8019C201.818 71.773 204.317 67.9102 206.269 62.2137L211.657 63.8524C210.447 67.403 209.353 70.9731 208.377 74.5628C207.44 78.1524 206.62 81.781 205.918 85.4487C199.007 85.2146 192.584 85.039 186.649 84.9219C180.715 84.8049 175.288 84.7464 170.368 84.7464C165.488 84.7464 160.568 84.8049 155.609 84.9219C150.69 85.039 145.79 85.2146 140.909 85.4487V80.2983H142.549C144.658 80.2983 146.278 80.0837 147.41 79.6546C148.543 79.2254 149.362 78.523 149.87 77.5476C150.963 75.4016 151.549 67.3835 151.627 53.4932C151.666 51.6984 151.686 50.3328 151.686 49.3964L151.803 36.6376C151.803 34.9208 151.822 32.6773 151.861 29.907C151.9 27.0978 151.92 25.1469 151.92 24.0544C151.92 17.0312 151.334 12.4466 150.163 10.3007C149.031 8.15469 146.864 7.08171 143.662 7.08171H142.315V1.93137Z" fill="#43A047"/>
<path d="M217.045 1.93137C220.364 2.12646 223.487 2.28253 226.416 2.39959C229.383 2.47762 232.018 2.51664 234.322 2.51664C236.704 2.51664 239.359 2.47762 242.287 2.39959C245.254 2.28253 248.671 2.12646 252.536 1.93137V7.19876C252.302 7.19876 251.97 7.17925 251.54 7.14023C251.111 7.10121 250.818 7.08171 250.662 7.08171C247.382 7.08171 245.157 8.05715 243.985 10.008C242.814 11.9589 242.228 16.3679 242.228 23.235C242.228 24.2495 242.248 26.0833 242.287 28.7365C242.326 31.3897 242.346 33.5552 242.346 35.2329L242.463 76.3185L242.814 76.3771C247.851 76.6892 251.658 76.8453 254.234 76.8453C264.034 76.8453 270.457 75.8308 273.503 73.8019C276.548 71.773 279.047 67.9102 280.999 62.2137L286.387 63.8524C285.177 67.403 284.083 70.9731 283.107 74.5628C282.17 78.1524 281.35 81.781 280.648 85.4487C273.737 85.2146 267.314 85.039 261.379 84.9219C255.445 84.8049 250.018 84.7464 245.098 84.7464C240.218 84.7464 235.298 84.8049 230.34 84.9219C225.42 85.039 220.52 85.2146 215.639 85.4487V80.2983H217.279C219.388 80.2983 221.008 80.0837 222.14 79.6546C223.273 79.2254 224.092 78.523 224.6 77.5476C225.693 75.4016 226.279 67.3835 226.357 53.4932C226.396 51.6984 226.416 50.3328 226.416 49.3964L226.533 36.6376C226.533 34.9208 226.552 32.6773 226.591 29.907C226.63 27.0978 226.65 25.1469 226.65 24.0544C226.65 17.0312 226.064 12.4466 224.893 10.3007C223.761 8.15469 221.594 7.08171 218.392 7.08171H217.045V1.93137Z" fill="#43A047"/>
<path d="M330.019 15.568L317.251 47.9332C318.735 47.9722 320.297 48.0112 321.937 48.0503C323.615 48.0503 325.841 48.0503 328.613 48.0503C331.815 48.0503 334.313 48.0503 336.109 48.0503C337.905 48.0112 339.584 47.9722 341.146 47.9332L330.019 15.568ZM326.797 1.52169H341.088C346.71 17.9871 352.059 33.126 357.135 46.9382C362.249 60.7115 365.822 69.8806 367.852 74.4457C368.711 76.5136 369.785 77.9963 371.073 78.8937C372.401 79.7521 374.158 80.1813 376.344 80.1813H377.633V85.4487C372.674 85.2146 368.867 85.0585 366.212 84.9805C363.557 84.9024 361.332 84.8634 359.536 84.8634C357.818 84.8634 355.592 84.9024 352.859 84.9805C350.126 85.0585 346.163 85.2146 340.97 85.4487V80.1813H342.025C345.109 80.1813 347.198 79.8301 348.291 79.1278C349.384 78.4255 349.931 77.1769 349.931 75.3821C349.931 74.8359 349.853 74.1921 349.697 73.4507C349.58 72.7094 349.306 71.6754 348.877 70.3488L344.074 56.1854C341.849 56.1464 338.921 56.1074 335.29 56.0684C331.658 55.9903 329.394 55.9513 328.496 55.9513C326.817 55.9513 323.44 56.0099 318.364 56.1269C316.529 56.1659 315.104 56.1854 314.089 56.1854L313.854 56.7707C310.028 66.0959 308.115 71.9876 308.115 74.4457C308.115 76.4746 308.681 77.9378 309.813 78.8352C310.985 79.7326 312.898 80.1813 315.553 80.1813H316.607V85.4487C312.156 85.2146 308.701 85.0585 306.241 84.9805C303.781 84.9024 301.751 84.8634 300.15 84.8634C298.823 84.8634 297.066 84.9024 294.879 84.9805C292.732 85.0585 289.589 85.2146 285.45 85.4487V80.1813C288.261 80.1813 290.506 79.6936 292.185 78.7181C293.864 77.7427 295.289 76.104 296.46 73.8019C298.139 70.7585 301.927 62.2527 307.822 48.2844C313.718 34.316 320.043 18.7285 326.797 1.52169Z" fill="#43A047"/>
<path d="M495.467 4.79917C495.467 5.18935 495.448 5.81363 495.409 6.67202C495.37 7.49139 495.35 8.09616 495.35 8.48634C495.35 11.1005 495.467 13.8708 495.701 16.7971C495.936 19.7234 496.307 22.9424 496.814 26.454L491.016 27.4489C490.391 21.6353 487.912 17.1288 483.578 13.9293C479.244 10.6908 473.525 9.07161 466.418 9.07161C457.36 9.07161 450.332 11.9004 445.335 17.5579C440.376 23.1765 437.897 31.1361 437.897 41.4368C437.897 52.5568 440.708 61.4138 446.33 68.0078C451.992 74.6018 459.547 77.8988 468.995 77.8988C474.93 77.8988 479.986 76.5527 484.164 73.8604C488.381 71.1682 491.797 67.0714 494.413 61.5699L499.567 63.9695C498.005 67.0518 496.638 70.0757 495.467 73.0411C494.296 75.9674 493.3 78.8742 492.48 81.7615C487.756 83.6734 483.129 85.117 478.6 86.0925C474.11 87.1069 469.776 87.6142 465.599 87.6142C452.011 87.6142 441.001 83.5953 432.567 75.5577C424.134 67.5201 419.917 57.0243 419.917 44.0704C419.917 31.2727 424.329 20.7379 433.153 12.4661C442.016 4.15538 453.241 0 466.828 0C471.709 0 476.492 0.390177 481.177 1.17053C485.901 1.95088 490.665 3.16043 495.467 4.79917Z" fill="#43A047"/>
<path d="M506.946 1.93137C510.772 2.16548 514.267 2.34106 517.429 2.45811C520.631 2.57517 523.481 2.63369 525.98 2.63369C528.44 2.63369 531.192 2.57517 534.238 2.45811C537.322 2.34106 540.739 2.16548 544.487 1.93137V7.19876H543.257C540.563 7.19876 538.63 7.47188 537.459 8.01813C536.327 8.56438 535.507 9.55933 534.999 11.003C534.57 12.2125 534.257 14.5926 534.062 18.1432C533.867 21.6938 533.769 28.0732 533.769 37.2814V61.3358C533.769 66.8373 533.867 70.661 534.062 72.807C534.296 74.9139 534.687 76.4551 535.233 77.4305C535.78 78.406 536.698 79.1083 537.986 79.5375C539.274 79.9667 541.188 80.1813 543.725 80.1813H545.19V85.4487C540.895 85.2146 537.127 85.039 533.886 84.9219C530.646 84.8049 527.893 84.7464 525.629 84.7464C523.559 84.7464 520.885 84.8049 517.605 84.9219C514.325 85.039 510.519 85.2146 506.185 85.4487V80.1813H507.649C510.265 80.1813 512.217 79.9667 513.505 79.5375C514.794 79.1083 515.672 78.406 516.141 77.4305C516.727 76.3381 517.137 74.5628 517.371 72.1046C517.605 69.6075 517.722 65.101 517.722 58.585V24.347C517.722 19.5088 517.605 16.1338 517.371 14.2219C517.176 12.2711 516.805 10.8274 516.258 9.89098C515.75 8.95455 514.852 8.27174 513.564 7.84255C512.315 7.41336 510.499 7.19876 508.117 7.19876H506.946V1.93137Z" fill="#43A047"/>
<path d="M569.612 80.1813H571.779C574.394 80.1813 576.308 79.9082 577.518 79.3619C578.728 78.7767 579.626 77.7622 580.212 76.3185C580.602 75.2261 580.876 72.5729 581.032 68.3589C581.188 64.145 581.266 56.3415 581.266 44.9483V11.4712H571.193C565.063 11.4712 560.866 12.3296 558.601 14.0464C556.337 15.7631 554.775 19.0601 553.916 23.9373L548.411 22.7668C549.309 18.9041 549.992 15.2169 550.461 11.7053C550.968 8.15469 551.28 4.66261 551.398 1.22906C552.881 1.73629 554.97 2.10695 557.664 2.34106C560.358 2.53615 564.907 2.63369 571.31 2.63369H606.449C613.634 2.63369 618.631 2.53615 621.442 2.34106C624.293 2.10695 626.381 1.71678 627.709 1.17053V2.98485C627.709 6.02823 627.826 9.18866 628.06 12.4661C628.334 15.7046 628.724 19.1382 629.232 22.7668L623.961 23.5862C623.297 18.826 621.95 15.6266 619.92 13.9878C617.889 12.3101 613.887 11.4712 607.914 11.4712H597.606C597.489 17.714 597.411 23.8593 597.372 29.907C597.333 35.9548 597.313 42.9975 597.313 51.0351V61.9796C597.313 67.1299 597.43 70.739 597.665 72.807C597.899 74.8749 598.27 76.4161 598.777 77.4305C599.363 78.406 600.281 79.1083 601.53 79.5375C602.779 79.9667 604.536 80.1813 606.801 80.1813H608.851V85.4487C607.875 85.4097 606.43 85.3511 604.517 85.2731C596.864 84.9219 591.632 84.7464 588.821 84.7464C586.791 84.7464 584.175 84.8049 580.973 84.9219C577.811 85.039 574.023 85.2146 569.612 85.4487V80.1813Z" fill="#43A047"/>
<path d="M661.677 43.3681C663.746 43.4852 665.503 43.5827 666.948 43.6608C668.393 43.6998 669.603 43.7193 670.579 43.7193C671.789 43.7193 673.078 43.6998 674.444 43.6608C675.811 43.5827 677.236 43.4852 678.72 43.3681C682.117 41.1831 684.596 38.7055 686.158 35.9353C687.758 33.126 688.559 29.8485 688.559 26.1028C688.559 21.2256 686.899 17.2848 683.581 14.2805C680.301 11.2371 675.928 9.7154 670.462 9.7154C668.783 9.7154 667.241 9.77392 665.835 9.89098C664.469 10.008 663.122 10.1836 661.794 10.4177C661.755 14.6706 661.716 19.1187 661.677 23.7618C661.677 28.4049 661.677 34.9403 661.677 43.3681ZM635.44 80.2983C635.752 80.3374 636.045 80.3764 636.318 80.4154C636.63 80.4154 637.099 80.4154 637.724 80.4154C640.925 80.4154 643.073 79.3619 644.166 77.255C645.298 75.148 645.864 69.5685 645.864 60.5164V49.9816L646.099 36.8717C646.138 34.1014 646.157 31.3507 646.157 28.6195C646.196 25.8882 646.216 22.6107 646.216 18.787C646.216 13.8708 645.611 10.6908 644.4 9.24719C643.229 7.80353 641.003 7.08171 637.724 7.08171H636.494V1.93137C640.671 2.12646 644.127 2.28253 646.86 2.39959C649.593 2.47762 651.975 2.51664 654.005 2.51664C656.894 2.51664 660.486 2.4191 664.781 2.22401C669.076 2.02892 671.965 1.93137 673.449 1.93137C683.132 1.93137 690.765 3.94078 696.348 7.9596C701.931 11.9784 704.723 17.4409 704.723 24.347C704.723 28.9511 703.317 33.0089 700.506 36.5205C697.734 40.0321 693.556 43.0365 687.973 45.5336L699.452 61.6869C704.918 70.1928 708.901 75.5382 711.399 77.7232C713.937 79.9082 716.631 81.0007 719.482 81.0007C719.638 81.0007 719.852 80.9812 720.126 80.9421C720.438 80.9031 720.672 80.8836 720.829 80.8836V85.7998C718.447 85.9949 716.378 86.1315 714.621 86.2095C712.864 86.3266 711.321 86.3851 709.994 86.3851C705.231 86.3851 701.502 85.8584 698.808 84.8049C696.114 83.7514 693.693 81.9371 691.546 79.3619C690.531 78.1524 688.032 74.2701 684.049 67.7151C680.067 61.1212 676.572 55.4831 673.566 50.801C671.145 50.879 668.998 50.9376 667.124 50.9766C665.25 51.0156 663.434 51.0351 661.677 51.0351V66.6031C661.677 72.5729 662.263 76.3381 663.434 77.8988C664.605 79.4204 666.909 80.1813 670.345 80.1813H671.985V85.4487C668.783 85.2536 665.581 85.117 662.38 85.039C659.178 84.9219 655.899 84.8634 652.541 84.8634C651.448 84.8634 649.827 84.9024 647.68 84.9805C645.571 85.0195 641.491 85.1756 635.44 85.4487V80.2983Z" fill="#43A047"/>
<path d="M765.397 15.568L752.63 47.9332C754.114 47.9722 755.675 48.0112 757.315 48.0503C758.994 48.0503 761.22 48.0503 763.992 48.0503C767.193 48.0503 769.692 48.0503 771.488 48.0503C773.284 48.0112 774.963 47.9722 776.525 47.9332L765.397 15.568ZM762.176 1.52169H776.466C782.089 17.9871 787.438 33.126 792.513 46.9382C797.628 60.7115 801.201 69.8806 803.231 74.4457C804.09 76.5136 805.163 77.9963 806.452 78.8937C807.779 79.7521 809.536 80.1813 811.723 80.1813H813.011V85.4487C808.053 85.2146 804.246 85.0585 801.591 84.9805C798.936 84.9024 796.71 84.8634 794.914 84.8634C793.196 84.8634 790.971 84.9024 788.238 84.9805C785.505 85.0585 781.542 85.2146 776.349 85.4487V80.1813H777.403C780.488 80.1813 782.577 79.8301 783.67 79.1278C784.763 78.4255 785.31 77.1769 785.31 75.3821C785.31 74.8359 785.232 74.1921 785.075 73.4507C784.958 72.7094 784.685 71.6754 784.255 70.3488L779.453 56.1854C777.228 56.1464 774.299 56.1074 770.668 56.0684C767.037 55.9903 764.773 55.9513 763.875 55.9513C762.196 55.9513 758.818 56.0099 753.743 56.1269C751.908 56.1659 750.482 56.1854 749.467 56.1854L749.233 56.7707C745.407 66.0959 743.494 71.9876 743.494 74.4457C743.494 76.4746 744.06 77.9378 745.192 78.8352C746.363 79.7326 748.276 80.1813 750.931 80.1813H751.986V85.4487C747.535 85.2146 744.079 85.0585 741.619 84.9805C739.16 84.9024 737.129 84.8634 735.529 84.8634C734.201 84.8634 732.444 84.9024 730.258 84.9805C728.11 85.0585 724.967 85.2146 720.829 85.4487V80.1813C723.64 80.1813 725.885 79.6936 727.564 78.7181C729.243 77.7427 730.668 76.104 731.839 73.8019C733.518 70.7585 737.305 62.2527 743.201 48.2844C749.096 34.316 755.422 18.7285 762.176 1.52169Z" fill="#43A047"/>
</svg>
